PathFileType	4	(X/Y/Z)	output.trc
DataRate	CameraRate	NumFrames	NumMarkers	Units	OrigDataRate	OrigDataStartFrame	OrigNumFrames
100	100	18	23	m	100	4508	6010
Frame#	Time	C7			T8			EL			EM			US			RS			AA			Fore_Clus_1			Fore_Clus_2			Fore_Clus_3			Fore_Clus_4			Hum_Clus_1			Hum_Clus_2			Hum_Clus_3			Hum_Clus_4			Thor_Clus_1			Thor_Clus_2			Thor_Clus_3			Thor_Clus_4			IJ			PX			GH			Thor_Clus_5		
		X1	Y1	Z1	X2	Y2	Z2	X3	Y3	Z3	X4	Y4	Z4	X5	Y5	Z5	X6	Y6	Z6	X7	Y7	Z7	X8	Y8	Z8	X9	Y9	Z9	X10	Y10	Z10	X11	Y11	Z11	X12	Y12	Z12	X13	Y13	Z13	X14	Y14	Z14	X15	Y15	Z15	X16	Y16	Z16	X17	Y17	Z17	X18	Y18	Z18	X19	Y19	Z19	X20	Y20	Z20	X21	Y21	Z21	X22	Y22	Z22	X23	Y23	Z23
4507	45.070000	-0.016560	1.485202	-0.147452	-0.019073	1.232835	-0.195979	-0.164887	1.147420	0.168344	-0.116837	1.111395	0.137269	-0.021436	1.265821	0.318746	-0.011113	1.296228	0.275768	-0.161226	1.399992	-0.022047	-0.080272	1.258907	0.299838	-0.047923	1.292335	0.328569	-0.045439	1.309105	0.306077	-0.076088	1.285547	0.263650	-0.171474	1.259064	0.145232	-0.201457	1.231592	0.100921	-0.214553	1.281803	0.063933	-0.180059	1.315518	0.097497	0.112634	1.384704	0.008764	0.074278	1.331652	0.061394	0.072802	1.378182	0.026995	0.131472	1.340229	0.033809	0.041795	1.405394	-0.039045	0.094047	1.213249	0.015775	-0.119206	1.370352	-0.025904	0.065426	1.350926	0.049783
4508	45.080000	-0.017061	1.485143	-0.147916	-0.019593	1.232711	-0.196109	-0.162538	1.151119	0.173094	-0.114350	1.114807	0.142571	-0.020076	1.273712	0.321195	-0.010079	1.303397	0.277640	-0.161249	1.400012	-0.021910	-0.078780	1.265817	0.302445	-0.046813	1.300163	0.330664	-0.044624	1.316479	0.307826	-0.075026	1.291783	0.265790	-0.170065	1.262312	0.147962	-0.199906	1.233666	0.104121	-0.213497	1.282997	0.066183	-0.179490	1.317300	0.100181	0.112957	1.385074	0.007899	0.074366	1.331905	0.060859	0.073029	1.378408	0.026360	0.131692	1.340496	0.033026	0.041709	1.405509	-0.039606	0.094260	1.213465	0.015284	-0.119087	1.370411	-0.025755	0.065621	1.351138	0.049245
4509	45.090000	-0.017537	1.485118	-0.148352	-0.020129	1.232632	-0.196255	-0.160209	1.154918	0.177720	-0.111866	1.118343	0.147760	-0.018772	1.281633	0.323492	-0.009095	1.310594	0.279380	-0.161269	1.400071	-0.021770	-0.077501	1.272726	0.305046	-0.045813	1.307916	0.332510	-0.043869	1.323800	0.309367	-0.073989	1.298101	0.267841	-0.168671	1.265509	0.150519	-0.198369	1.235721	0.107197	-0.212493	1.284294	0.068339	-0.178661	1.319645	0.101355	0.112737	1.385345	0.007190	0.074397	1.332207	0.060301	0.073148	1.378621	0.025788	0.131966	1.340746	0.032252	0.041627	1.405629	-0.040151	0.094438	1.213667	0.014777	-0.118969	1.370504	-0.025602	0.065832	1.351362	0.048603
4510	45.100000	-0.017982	1.485128	-0.148762	-0.020670	1.232597	-0.196423	-0.157899	1.158797	0.182209	-0.109382	1.121991	0.152822	-0.017527	1.289568	0.325632	-0.008164	1.317801	0.280983	-0.161287	1.400165	-0.021640	-0.075964	1.279612	0.307412	-0.044779	1.315672	0.334197	-0.042939	1.331118	0.310793	-0.072964	1.304441	0.269776	-0.167300	1.268717	0.152815	-0.196824	1.237856	0.110160	-0.211450	1.285535	0.070426	-0.177731	1.321754	0.102356	0.112611	1.385345	0.006325	0.074599	1.332451	0.059738	0.073184	1.378777	0.025204	0.132221	1.340982	0.031525	0.041548	1.405752	-0.040678	0.094579	1.213852	0.014257	-0.118854	1.370629	-0.025446	0.066138	1.351674	0.048191
4511	45.110000	-0.018403	1.485173	-0.149139	-0.021225	1.232608	-0.196610	-0.155609	1.162743	0.186550	-0.106893	1.125740	0.157744	-0.016344	1.297499	0.327611	-0.007285	1.324998	0.282445	-0.161307	1.400294	-0.021512	-0.074310	1.286468	0.309516	-0.043654	1.323424	0.335771	-0.042336	1.338605	0.312080	-0.072050	1.310848	0.271532	-0.165936	1.271972	0.155056	-0.195359	1.240039	0.113080	-0.210456	1.286842	0.072420	-0.176809	1.324043	0.103112	0.112762	1.385872	0.005671	0.074918	1.332538	0.059251	0.073256	1.378970	0.024623	0.132355	1.341172	0.030854	0.041467	1.405878	-0.041183	0.094678	1.214021	0.013725	-0.118750	1.370786	-0.025293	0.066377	1.351883	0.047610
4512	45.120000	-0.018797	1.485253	-0.149486	-0.021784	1.232664	-0.196820	-0.153337	1.166736	0.190734	-0.104396	1.129578	0.162513	-0.015225	1.305408	0.329427	-0.006460	1.332169	0.283763	-0.161333	1.400453	-0.021394	-0.073720	1.293625	0.311668	-0.042923	1.331265	0.336997	-0.041616	1.345957	0.313148	-0.070964	1.317170	0.273105	-0.164672	1.275271	0.157182	-0.193861	1.242248	0.115827	-0.209412	1.288156	0.074410	-0.176093	1.326082	0.104772	0.112784	1.385773	0.004656	0.075207	1.332821	0.058609	0.073372	1.379168	0.024076	0.132438	1.341361	0.030109	0.041383	1.406006	-0.041667	0.094736	1.214171	0.013181	-0.118660	1.370974	-0.025142	0.066579	1.351991	0.046924
4513	45.130000	-0.019166	1.485364	-0.149802	-0.022347	1.232761	-0.197052	-0.151080	1.170759	0.194751	-0.101888	1.133490	0.167121	-0.014172	1.313280	0.331079	-0.005689	1.339298	0.284934	-0.161365	1.400637	-0.021288	-0.072414	1.300680	0.313648	-0.042246	1.339167	0.338080	-0.040862	1.353286	0.314033	-0.070045	1.323483	0.274607	-0.163395	1.278494	0.159201	-0.192374	1.244493	0.118526	-0.208433	1.289470	0.076261	-0.175249	1.328396	0.105369	0.112919	1.385993	0.003990	0.075462	1.333011	0.058070	0.073600	1.379366	0.023554	0.132546	1.341563	0.029383	0.041294	1.406134	-0.042128	0.094754	1.214303	0.012629	-0.118587	1.371194	-0.024994	0.066780	1.352128	0.046450
4514	45.140000	-0.019517	1.485503	-0.150087	-0.022916	1.232897	-0.197301	-0.148839	1.174797	0.198598	-0.099368	1.137465	0.171557	-0.013185	1.321100	0.332566	-0.004971	1.346370	0.285960	-0.161407	1.400843	-0.021188	-0.071347	1.307724	0.315302	-0.041515	1.346869	0.339123	-0.040284	1.360528	0.314745	-0.069073	1.329761	0.275800	-0.162178	1.281770	0.161132	-0.190977	1.246787	0.121167	-0.207440	1.290802	0.078089	-0.174633	1.330606	0.106389	0.113020	1.386126	0.003272	0.075663	1.333160	0.057561	0.073752	1.379522	0.023042	0.132693	1.341759	0.028611	0.041199	1.406263	-0.042564	0.094733	1.214418	0.012072	-0.118535	1.371445	-0.024851	0.066988	1.352277	0.045897
4515	45.150000	-0.019846	1.485666	-0.150349	-0.023477	1.233064	-0.197571	-0.146609	1.178833	0.202272	-0.096834	1.141486	0.175815	-0.012264	1.328855	0.333890	-0.004307	1.353374	0.286840	-0.161456	1.401061	-0.021106	-0.070371	1.314642	0.316859	-0.040896	1.354491	0.339863	-0.039705	1.367714	0.315310	-0.068083	1.336027	0.276880	-0.161006	1.284923	0.162876	-0.189500	1.248985	0.123645	-0.206534	1.292175	0.079826	-0.174026	1.332595	0.107155	0.113056	1.386057	0.002819	0.075870	1.333237	0.057116	0.073922	1.379617	0.022394	0.132790	1.341848	0.027956	0.041099	1.406390	-0.042981	0.094679	1.214517	0.011510	-0.118504	1.371726	-0.024709	0.067105	1.352437	0.045404
4516	45.160000	-0.020163	1.485846	-0.150584	-0.024039	1.233257	-0.197852	-0.144390	1.182854	0.205772	-0.094287	1.145543	0.179892	-0.011409	1.336532	0.335052	-0.003697	1.360298	0.287577	-0.161515	1.401290	-0.021028	-0.069336	1.321574	0.318292	-0.040285	1.362098	0.340640	-0.039170	1.374843	0.315774	-0.067316	1.342167	0.277939	-0.159889	1.288194	0.164573	-0.188082	1.251304	0.126015	-0.205568	1.293517	0.081590	-0.173284	1.334802	0.108593	0.113060	1.386147	0.002278	0.075934	1.333461	0.056560	0.074001	1.379760	0.021870	0.132883	1.341888	0.027339	0.040991	1.406515	-0.043377	0.094596	1.214602	0.010947	-0.118495	1.372036	-0.024570	0.067238	1.352741	0.045058
4517	45.170000	-0.020464	1.486038	-0.150803	-0.024592	1.233466	-0.198144	-0.142180	1.186848	0.209103	-0.091729	1.149619	0.183785	-0.010619	1.344120	0.336056	-0.003140	1.367132	0.288174	-0.161580	1.401522	-0.020963	-0.068462	1.328352	0.319590	-0.039741	1.369511	0.341194	-0.038807	1.381832	0.316061	-0.066692	1.348162	0.278852	-0.158542	1.291301	0.166209	-0.186706	1.253545	0.128378	-0.204674	1.294907	0.083254	-0.172708	1.336994	0.109149	0.113077	1.386257	0.001718	0.075935	1.333498	0.056050	0.074005	1.379890	0.021368	0.132959	1.341965	0.026749	0.040879	1.406636	-0.043756	0.094492	1.214674	0.010387	-0.118507	1.372373	-0.024431	0.067271	1.352787	0.044459
4518	45.180000	-0.020753	1.486235	-0.151008	-0.025135	1.233685	-0.198442	-0.139977	1.190806	0.212270	-0.089164	1.153704	0.187496	-0.009892	1.351610	0.336906	-0.002637	1.373870	0.288635	-0.161649	1.401752	-0.020908	-0.067582	1.334987	0.320623	-0.039234	1.376859	0.341562	-0.038356	1.388740	0.316300	-0.065815	1.354061	0.279722	-0.157438	1.294408	0.167746	-0.185257	1.255821	0.130565	-0.203784	1.296190	0.084849	-0.172288	1.339078	0.110356	0.113030	1.386318	0.001286	0.075947	1.333502	0.055556	0.073964	1.379952	0.020988	0.132941	1.341983	0.026164	0.040765	1.406753	-0.044122	0.094374	1.214736	0.009833	-0.118538	1.372734	-0.024289	0.067220	1.352736	0.043910
4519	45.190000	-0.021035	1.486432	-0.151203	-0.025671	1.233905	-0.198737	-0.137782	1.194722	0.215280	-0.086598	1.157786	0.191028	-0.009225	1.358992	0.337606	-0.002185	1.380506	0.288966	-0.161720	1.401981	-0.020854	-0.066744	1.341531	0.321654	-0.038872	1.384004	0.341823	-0.038036	1.395511	0.316409	-0.065504	1.359990	0.280424	-0.156345	1.297627	0.168999	-0.183886	1.257998	0.132728	-0.202890	1.297478	0.086344	-0.171783	1.340844	0.110967	0.112925	1.386474	0.000621	0.075843	1.333491	0.055021	0.073849	1.379938	0.020600	0.132759	1.341915	0.025616	0.040650	1.406865	-0.044475	0.094247	1.214791	0.009287	-0.118586	1.373117	-0.024145	0.067115	1.352691	0.043510
4520	45.200000	-0.021305	1.486621	-0.151396	-0.026190	1.234118	-0.199029	-0.135594	1.198589	0.218144	-0.084035	1.161853	0.194387	-0.008616	1.366262	0.338163	-0.001785	1.387036	0.289173	-0.161788	1.402203	-0.020809	-0.065916	1.347953	0.322501	-0.038416	1.390967	0.342023	-0.037804	1.402151	0.316429	-0.064845	1.365817	0.280994	-0.155597	1.300495	0.170607	-0.182492	1.260100	0.134720	-0.202012	1.298672	0.087787	-0.171407	1.342871	0.111300	0.112781	1.386444	0.000236	0.075818	1.333249	0.054497	0.073712	1.379928	0.020280	0.132622	1.341840	0.025127	0.040539	1.406971	-0.044824	0.094121	1.214841	0.008753	-0.118645	1.373517	-0.023995	0.067003	1.352622	0.043141
4521	45.210000	-0.021568	1.486801	-0.151588	-0.026703	1.234319	-0.199307	-0.133412	1.202408	0.220869	-0.081482	1.165896	0.197579	-0.008061	1.373412	0.338583	-0.001433	1.393456	0.289262	-0.161849	1.402420	-0.020761	-0.065074	1.354202	0.323224	-0.038029	1.397878	0.342124	-0.037635	1.408594	0.316364	-0.064239	1.371458	0.281424	-0.154574	1.303406	0.171747	-0.181110	1.262192	0.136579	-0.201155	1.299870	0.089122	-0.170901	1.344670	0.112025	0.112692	1.386349	-0.000137	0.075715	1.333331	0.054204	0.073616	1.379899	0.019901	0.132547	1.341771	0.024622	0.040433	1.407072	-0.045166	0.094000	1.214888	0.008233	-0.118713	1.373930	-0.023838	0.067130	1.352631	0.042809
4522	45.220000	-0.021820	1.486967	-0.151786	-0.027202	1.234502	-0.199570	-0.131238	1.206176	0.223469	-0.078947	1.169905	0.200613	-0.007556	1.380438	0.338873	-0.001130	1.399765	0.289241	-0.161900	1.402633	-0.020712	-0.064289	1.360431	0.323828	-0.037746	1.404631	0.342003	-0.037456	1.414894	0.316046	-0.063795	1.376962	0.281735	-0.153633	1.306211	0.173013	-0.179689	1.264191	0.138307	-0.200240	1.301006	0.090436	-0.170516	1.346473	0.112638	0.112665	1.386193	-0.000499	0.075728	1.333283	0.053835	0.073645	1.379940	0.019547	0.132517	1.341740	0.024094	0.040338	1.407168	-0.045508	0.093890	1.214935	0.007731	-0.118785	1.374351	-0.023674	0.067473	1.352758	0.042476
4523	45.230000	-0.022062	1.487116	-0.151992	-0.027692	1.234664	-0.199812	-0.129070	1.209895	0.225954	-0.076434	1.173875	0.203499	-0.007098	1.387338	0.339041	-0.000871	1.405960	0.289115	-0.161935	1.402842	-0.020659	-0.063646	1.366507	0.324312	-0.037517	1.411128	0.342028	-0.037322	1.421101	0.315651	-0.063250	1.382448	0.281981	-0.152700	1.308943	0.174125	-0.178339	1.266192	0.140100	-0.199298	1.302086	0.091723	-0.170022	1.348061	0.113610	0.112663	1.386255	-0.001012	0.075785	1.333352	0.053446	0.073661	1.380004	0.019164	0.132516	1.341780	0.023573	0.040256	1.407259	-0.045850	0.093795	1.214984	0.007247	-0.118856	1.374777	-0.023501	0.067420	1.352846	0.042225
4524	45.240000	-0.022295	1.487249	-0.152204	-0.028179	1.234803	-0.200027	-0.126911	1.213570	0.228334	-0.073951	1.177799	0.206244	-0.006681	1.394106	0.339094	-0.000654	1.412041	0.288892	-0.161953	1.403055	-0.020592	-0.062980	1.372479	0.324735	-0.037314	1.417595	0.341824	-0.037272	1.427205	0.315232	-0.062651	1.387857	0.282151	-0.151711	1.311779	0.175345	-0.176955	1.268185	0.141726	-0.198360	1.303138	0.092910	-0.169585	1.349738	0.114317	0.112666	1.386319	-0.001460	0.076008	1.333395	0.053184	0.073709	1.380102	0.018760	0.132604	1.341831	0.023030	0.040189	1.407347	-0.046194	0.093717	1.215036	0.006783	-0.118924	1.375203	-0.023318	0.067424	1.353024	0.041908
